<?xml version="1.0" encoding="UTF-8"?>
<svg width="178px" height="247px" viewBox="0 0 178 247" version="1.1" xmlns="http://www.w3.org/2000/svg" xmlns:xlink="http://www.w3.org/1999/xlink">
    <!-- Generator: Sketch 53.2 (72643) - https://sketchapp.com -->
    <title>Artboard</title>
    <desc>Created with Sketch.</desc>
    <g id="Artboard" stroke="none" stroke-width="1" fill="none" fill-rule="evenodd">
        <g id="devkode" fill-rule="nonzero">
            <path d="M177.021,143.033 C177.231,144.308 176.966,144.975 175.4,144.928 C167.924,144.703 160.436,145.246 152.966,144.412 C149.364,144.01 146.785,142.454 145.454,138.993 C143.99,135.187 149.027,144.525 146.904,141.653 C147.352,142.457 133.952,121.289 133.25,120.466 C122.899,108.33 109.877,101.382 93.915,99.835 C67.993,97.323 43.382,113.394 35.104,137.174 C32.809,143.767 29.229,147.086 22.218,146.917 C15.979,146.766 9.73,146.921 3.488,147.07 C1.005,147.129 1.802,145.447 1.971,144.369 C3.126,136.977 4.897,129.717 7.997,122.894 C21.307,93.6 43.655,75.62 75.533,70.444 C100.112,66.453 122.478,72.468 142.418,87.421 C143.026,87.877 143.527,88.593 144.669,88.554 C144.669,59.408 144.669,30.28 144.669,0.903 C159.08,6.865 169.495,16.194 173.797,31.336 C175.628,37.781 176.732,44.346 176.536,51.081 C176.878,51.85 176.727,52.663 176.727,53.456 C176.735,80.005 176.734,106.554 176.733,133.103 C176.733,133.726 176.751,134.35 176.709,134.973 C176.685,135.332 176.69,141.02 177.021,143.033 Z" id="Path" fill="#FFFFFF"></path>
            <path d="M88.039,246.877 C46.746,246.874 10.721,217.91 2.106,177.722 C1.474,174.774 1.209,171.749 0.698,168.773 C0.534,167.817 0.516,167.171 1.74,167.254 C9.446,167.777 17.23,167.107 24.852,168.966 C29.171,170.019 31.775,172.686 33.179,176.775 C35.779,184.348 39.549,191.288 44.981,197.193 C57.389,210.679 72.706,217.263 91.137,216.359 C106.267,215.617 119.24,209.793 129.371,198.737 C135.591,191.949 140.953,184.232 143.386,175.026 C144.501,170.807 147.397,168.378 151.273,167.115 C155.349,165.787 159.64,165.552 163.915,165.439 C167.566,165.343 171.218,165.249 174.867,165.099 C176.151,165.046 176.452,165.361 176.309,166.765 C172.403,205.133 142.492,238.12 105.017,245.214 C99.421,246.272 93.749,246.844 88.039,246.877 Z" id="Path" fill="#FFFFFF"></path>
            <path d="M87.746,124.208 C107.102,124.2 122.528,139.574 122.527,158.872 C122.527,178.148 106.981,193.831 87.856,193.846 C68.768,193.861 52.938,178.083 52.892,158.996 C52.847,139.859 68.52,124.215 87.746,124.208 Z" id="Path" fill="#EF7D00"></path>
        </g>
    </g>
</svg>